<mxfile host="app.diagrams.net" modified="2023-11-07T21:41:55.532Z" agent="Mozilla/5.0 (X11; Linux x86_64) AppleWebKit/537.36 (KHTML, like Gecko) Chrome/116.0.0.0 Safari/537.36" version="22.0.8" etag="Tm5dQFSV6xEf7kUHVgT9" type="github">
  <diagram name="Page-1" id="m0zDELx1v0a-Gnew9axJ">
    <mxGraphModel>
      <root>
        <mxCell id="0" />
        <mxCell id="1" parent="0" />
      </root>
    </mxGraphModel>
  </diagram>
</mxfile>
